<?xml version="1.0" standalone="no"?>
<!DOCTYPE svg PUBLIC "-//W3C//DTD SVG 1.1//EN" "http://www.w3.org/Graphics/SVG/1.1/DTD/svg11.dtd" >
<svg>
<metadata>
Created by FontForge 20120731 at Tue Aug  9 15:34:27 2016
 By www
Copyright (c) VirusFonts, 2006. All rights reserved. www.virusfonts.com
</metadata>
<defs>
<font id="BourgeoisW00-LightAlt" horiz-adv-x="449" >
  <font-face 
    font-family="BourgeoisW00-LightAlt"
    font-weight="300"
    font-stretch="normal"
    units-per-em="1000"
    panose-1="2 0 5 6 0 0 0 2 0 4"
    ascent="800"
    descent="-200"
    x-height="421"
    cap-height="568"
    bbox="-186 -410 1165 777"
    underline-thickness="50"
    underline-position="-125"
    unicode-range="U+0020-FB02"
  />
<missing-glyph horiz-adv-x="180" 
 />
    <glyph glyph-name=".notdef" horiz-adv-x="180" 
 />
    <glyph glyph-name=".null" horiz-adv-x="0" 
 />
    <glyph glyph-name="nonmarkingreturn" horiz-adv-x="333" 
 />
    <glyph glyph-name="space" unicode=" " horiz-adv-x="180" 
 />
    <glyph glyph-name="exclam" unicode="!" horiz-adv-x="183" 
d="M80 100l-6 468h35l-6 -468h-23zM70 43h43v-43h-43v43z" />
    <glyph glyph-name="quotedbl" unicode="&#x22;" horiz-adv-x="236" 
d="M167 345l-6 223h35l-6 -223h-23zM46 345l-6 223h35l-6 -223h-23z" />
    <glyph glyph-name="numbersign" unicode="#" horiz-adv-x="507" 
d="M248 568l-40 -183h134l40 183h24l-40 -183h111l-5 -25h-111l-33 -152h110l-5 -25h-110l-39 -183h-25l39 183h-133l-39 -183h-25l40 183h-111l5 25h111l33 152h-110l5 25h110l39 183h25zM170 208h134l33 152h-134z" />
    <glyph glyph-name="dollar" unicode="$" horiz-adv-x="434" 
d="M60 419q0 18 7 33.5t18.5 27t27.5 18.5t34 7h57v63h25v-63h58q18 0 34 -7t28 -18.5t18.5 -27t6.5 -33.5v-24h-23v24q0 26 -19 44t-45 18h-58v-189l95 -48q21 -11 35.5 -28.5t14.5 -41.5v-24q0 -18 -6.5 -33.5t-18.5 -27t-28 -18.5t-34 -7h-58v-64h-25v64h-57q-18 0 -34 7
t-27.5 18.5t-18.5 27t-7 33.5v24h23v-24q0 -26 19 -44t45 -18h57v189l-94 48q-20 11 -35 28.5t-15 41.5v24zM229 265v-177h58q26 0 44 18t18 44v24q0 16 -9 27.5t-23 18.5zM85 395q0 -15 9 -27t23 -19l87 -44v176h-57q-26 0 -44 -18t-18 -44v-24z" />
    <glyph glyph-name="percent" unicode="%" horiz-adv-x="446" 
d="M65 438q0 -16 11 -28t26 -12h56q15 0 26 12t11 28v77q0 16 -11 28t-26 12h-56q-15 0 -26 -12t-11 -28v-77zM40 515q0 26 18 44.5t44 18.5h56q26 0 44 -18.5t18 -44.5v-77q0 -26 -18 -44.5t-44 -18.5h-56q-26 0 -44 18.5t-18 44.5v77zM356 568l-241 -568h-25l241 568h25z
M381 130q0 16 -11 28t-26 12h-56q-15 0 -26 -12t-11 -28v-77q0 -16 11 -28t26 -12h56q15 0 26 12t11 28v77zM406 53q0 -26 -18 -44.5t-44 -18.5h-56q-26 0 -44 18.5t-18 44.5v77q0 26 18 44.5t44 18.5h56q26 0 44 -18.5t18 -44.5v-77z" />
    <glyph glyph-name="ampersand" unicode="&#x26;" horiz-adv-x="484" 
d="M383 0v45q-3 -5 -10 -14t-19.5 -18t-29.5 -16t-39 -7h-128q-21 0 -40 8t-32.5 22t-21.5 32.5t-8 39.5v109q0 30 19 54.5t48 31.5q-26 9 -42.5 32.5t-16.5 52.5v105q0 21 8 39t21.5 32t32.5 22t40 8h133q21 0 40 -8t32.5 -22t21.5 -32t8 -39v-25h-26v25q0 31 -22.5 53.5
t-54.5 22.5h-131q-32 0 -54 -22.5t-22 -53.5v-105q0 -31 22 -52.5t54 -21.5h49v-23h-57q-32 0 -54 -21.5t-22 -52.5v-109q0 -31 22 -54t54 -23h128q41 0 69 28t28 69v163h-49v23h125v-23h-49v-275h-27z" />
    <glyph glyph-name="quotesingle" unicode="'" horiz-adv-x="115" 
d="M46 345l-6 223h35l-6 -223h-23z" />
    <glyph glyph-name="parenleft" unicode="(" horiz-adv-x="222" 
d="M161 -123q-19 0 -35.5 7t-29 19.5t-19.5 29t-7 34.5v559q0 18 7 34.5t19.5 29t29 19.5t35.5 7h21v-25h-21q-29 0 -47.5 -19t-18.5 -46v-559q0 -27 18.5 -46t47.5 -19h21v-25h-21z" />
    <glyph glyph-name="parenright" unicode=")" horiz-adv-x="222" 
d="M40 -123v25h21q29 0 47.5 19t18.5 46v559q0 27 -18.5 46t-47.5 19h-21v25h21q19 0 35.5 -7t29 -19.5t19.5 -29t7 -34.5v-559q0 -18 -7 -34.5t-19.5 -29t-29 -19.5t-35.5 -7h-21z" />
    <glyph glyph-name="asterisk" unicode="*" horiz-adv-x="450" 
d="M245 362l165 -92l-13 -23l-162 97l4 -189h-27l3 189l-161 -97l-14 23l165 92l-165 91l13 23l162 -97l-3 189h27l-4 -189l162 97l13 -23z" />
    <glyph glyph-name="plus" unicode="+" horiz-adv-x="569" 
d="M298 227v-227h-27v227h-221v25h221v227h27v-227h221v-25h-221z" />
    <glyph glyph-name="comma" unicode="," horiz-adv-x="203" 
d="M97 0h-17v43h43v-34l-45 -166h-9z" />
    <glyph glyph-name="hyphen" unicode="-" horiz-adv-x="287" 
d="M237 193h-187v25h187v-25z" />
    <glyph glyph-name="period" unicode="." horiz-adv-x="203" 
d="M80 43h43v-43h-43v43z" />
    <glyph glyph-name="slash" unicode="/" horiz-adv-x="332" 
d="M40 -12h-30l283 607h29z" />
    <glyph glyph-name="zero" unicode="0" horiz-adv-x="546" 
d="M486 91q0 -21 -8 -39t-21.5 -32t-32.5 -22t-40 -8h-222q-21 0 -39.5 8t-32.5 22t-22 32t-8 39v386q0 21 8 39t22 32t32.5 22t39.5 8h222q21 0 40 -8t32.5 -22t21.5 -32t8 -39v-386zM459 477q0 17 -8 32.5t-21 26.5l-295 -516q11 -5 28 -5h220q32 0 54 22.5t22 53.5v386z
M87 91q0 -18 7.5 -33.5t21.5 -26.5l294 517q-13 5 -27 5h-220q-32 0 -54 -22.5t-22 -53.5v-386z" />
    <glyph glyph-name="one" unicode="1" horiz-adv-x="348" 
d="M35 0v25h125v500l-107 -108l-18 18l152 152v-562h126v-25h-278z" />
    <glyph glyph-name="two" unicode="2" horiz-adv-x="476" 
d="M379 337q20 20 20 52v88q0 31 -22 53.5t-54 22.5h-170q-32 0 -54.5 -22.5t-22.5 -53.5v-25h-26v25q0 21 8 39t21.5 32t32.5 22t40 8h1h171q21 0 40 -8t32.5 -22t21.5 -32t8 -39v-88q0 -20 -7 -38.5t-21 -31.5l-299 -294h321v-25h-382z" />
    <glyph glyph-name="three" unicode="3" horiz-adv-x="486" 
d="M399 208q0 32 -22 55.5t-54 23.5h-127l186 256h-322v25h371l-187 -258h80q21 0 40 -8t32.5 -22t21.5 -32.5t8 -39.5v-116q0 -21 -8 -39.5t-21.5 -32.5t-32.5 -22t-40 -8h-172q-21 0 -40 8t-32.5 22t-21.5 32.5t-8 39.5v24h26v-24q0 -31 22.5 -54t54.5 -23h170q32 0 54 23
t22 54v116z" />
    <glyph glyph-name="four" unicode="4" horiz-adv-x="458" 
d="M378 145v-145h-27v145h-331l358 444v-419h70v-25h-70zM351 519l-281 -349h281v349z" />
    <glyph glyph-name="five" unicode="5" horiz-adv-x="496" 
d="M92 543v-208q1 2 7 7.5t15.5 11t22.5 10t30 4.5h167q21 0 40 -8t32.5 -22t21.5 -32t8 -39v-176q0 -21 -8 -39t-21.5 -32t-32.5 -22t-40 -8h-172q-21 0 -39.5 8t-32.5 22t-22 32t-8 39v25h27v-25q0 -31 22 -53.5t54 -22.5h170q32 0 54 22.5t22 53.5v176q0 31 -22 53.5
t-54 22.5h-166q-20 0 -35.5 -7t-26 -16.5t-16 -20.5t-6.5 -19h-18v288h365v-25h-338z" />
    <glyph glyph-name="six" unicode="6" horiz-adv-x="496" 
d="M334 338q21 0 40 -8t32.5 -22t21.5 -32t8 -39v-146q0 -21 -8 -39t-21.5 -32t-32.5 -22t-40 -8h-172q-21 0 -39.5 8t-32.5 22t-22 32t-8 39v386q0 21 8 39t22 32t32.5 22t39.5 8h172q21 0 40 -8t32.5 -22t21.5 -32t8 -39v-25h-27v25q0 31 -22 53.5t-54 22.5h-170
q-32 0 -54 -22.5t-22 -53.5v-156q14 9 32.5 13t35.5 4h179zM157 313q-18 0 -36.5 -4.5t-33.5 -14.5v-203q0 -31 22 -53.5t54 -22.5h170q32 0 54 22.5t22 53.5v146q0 31 -22 53.5t-54 22.5h-176z" />
    <glyph glyph-name="seven" unicode="7" horiz-adv-x="446" 
d="M179 0h-29l243 543h-373v25h411z" />
    <glyph glyph-name="eight" unicode="8" horiz-adv-x="496" 
d="M162 -10q-21 0 -40 8t-32.5 22t-21.5 32.5t-8 39.5v121q0 30 19 54.5t48 31.5q-26 9 -42.5 32.5t-16.5 52.5v93q0 21 8 39t21.5 32t32.5 22t40 8h156q21 0 40 -8t32.5 -22t21.5 -32t8 -39v-93q0 -29 -16.5 -52.5t-42.5 -32.5q29 -7 48 -31.5t19 -54.5v-121
q0 -21 -8 -39.5t-21.5 -32.5t-32.5 -22t-40 -8h-172zM333 15q32 0 54 23t22 54v121q0 31 -22 52.5t-54 21.5h-170q-32 0 -54 -21.5t-22 -52.5v-121q0 -31 22 -54t54 -23h170zM171 553q-32 0 -54 -22.5t-22 -53.5v-93q0 -31 22 -52.5t54 -21.5h154q32 0 54 21.5t22 52.5v93
q0 31 -22 53.5t-54 22.5h-154z" />
    <glyph glyph-name="nine" unicode="9" horiz-adv-x="496" 
d="M162 231q-21 0 -40 8t-32.5 22t-21.5 32t-8 39v145q0 21 8 39t21.5 32t32.5 22t40 8h172q21 0 39.5 -8t32.5 -22t22 -32t8 -39v-284v-102q0 -21 -8 -39t-22 -32t-32.5 -22t-39.5 -8h-172q-21 0 -40 8t-32.5 22t-21.5 32t-8 39v25h27v-25q0 -31 22 -53.5t54 -22.5h170
q32 0 54 22.5t22 53.5v157q-14 -9 -32.5 -13t-35.5 -4h-179zM339 256q18 0 36.5 4.5t33.5 14.5v202q0 31 -22 53.5t-54 22.5h-170q-32 0 -54 -22.5t-22 -53.5v-145q0 -31 22 -53.5t54 -22.5h176z" />
    <glyph glyph-name="colon" unicode=":" horiz-adv-x="203" 
d="M80 43h43v-43h-43v43zM80 421h43v-43h-43v43z" />
    <glyph glyph-name="semicolon" unicode=";" horiz-adv-x="203" 
d="M80 421h43v-43h-43v43zM97 0h-17v43h43v-34l-45 -166h-9z" />
    <glyph glyph-name="less" unicode="&#x3c;" horiz-adv-x="386" 
d="M30 233v14l316 184v-27l-285 -164l285 -164v-27z" />
    <glyph glyph-name="equal" unicode="=" horiz-adv-x="458" 
d="M408 304h-358v25h358v-25zM408 181h-358v25h358v-25z" />
    <glyph glyph-name="greater" unicode="&#x3e;" horiz-adv-x="386" 
d="M40 49v27l285 164l-285 164v27l316 -184v-14z" />
    <glyph glyph-name="question" unicode="?" horiz-adv-x="435" 
d="M154 43h43v-43h-43v43zM162 100v98q0 32 17.5 56.5t45.5 36.5l110 50q20 8 32 27t12 41v68q0 31 -22.5 53.5t-54.5 22.5h-149q-32 0 -55 -22.5t-23 -53.5v-25h-25v25q0 21 8 39t21.5 32t32.5 22t40 8h151q21 0 39.5 -8t32.5 -22t22 -32t8 -39v-68q0 -30 -16.5 -55
t-42.5 -37l-111 -49q-20 -9 -34 -28t-14 -42v-98h-25z" />
    <glyph glyph-name="at" unicode="@" horiz-adv-x="689" 
d="M387 68q26 0 44 18.5t18 44.5v222h-161q-26 0 -44 -18.5t-18 -44.5v-159q0 -26 18 -44.5t44 -18.5h99zM629 131q0 -18 -6.5 -33.5t-18.5 -27t-28 -18.5t-34 -7h-6q-24 0 -43.5 12.5t-30.5 31.5q-11 -19 -31 -31.5t-44 -12.5h-99q-18 0 -34 7t-28 18.5t-18.5 27t-6.5 33.5
v74v85q0 18 6.5 33.5t18.5 27t28 18.5t34 7h186v-245q0 -26 18 -44.5t44 -18.5h4q26 0 44 18.5t18 44.5v346q0 31 -22 54t-54 23h-363q-32 0 -55 -23t-23 -54v-524q0 -31 23 -55t55 -24h461v-22h-462q-21 0 -39.5 8t-32.5 22t-22 32t-8 39v524q0 21 8 39t22 32t32.5 22
t39.5 8h365q21 0 40 -8t32.5 -22t21.5 -32t8 -39v-346z" />
    <glyph glyph-name="A" unicode="A" horiz-adv-x="500" 
d="M114 190l-77 -190h-27l240 589l240 -589h-27l-77 190h-272zM376 215l-126 312l-126 -312h252z" />
    <glyph glyph-name="B" unicode="B" horiz-adv-x="486" 
d="M97 25h231q32 0 54 22.5t22 53.5v100q0 31 -22 52.5t-54 21.5h-231v-250zM97 298h216q32 0 54 21.5t22 52.5v95q0 31 -22 53.5t-54 22.5h-216v-245zM314 568q21 0 40 -8t32.5 -22t21.5 -32t8 -39v-95q0 -28 -15.5 -50.5t-40.5 -32.5q31 -6 51 -31t20 -57v-100
q0 -21 -8 -39t-21.5 -32t-32.5 -22t-40 -8h-259v547l-16 21h260z" />
    <glyph glyph-name="C" unicode="C" horiz-adv-x="505" 
d="M450 116v-25q0 -21 -8 -39t-21.5 -32t-32.5 -22t-40 -8h-186q-21 0 -39.5 8t-32.5 22t-22 32t-8 39v386q0 21 8 39t22 32t32.5 22t39.5 8h186q21 0 40 -8t32.5 -22t21.5 -32t8 -39v-25h-27v25q0 31 -22 53.5t-54 22.5h-184q-32 0 -54 -22.5t-22 -53.5v-386
q0 -31 22 -53.5t54 -22.5h184q32 0 54 22.5t22 53.5v25h27z" />
    <glyph glyph-name="D" unicode="D" horiz-adv-x="539" 
d="M97 543v-518h279q32 0 54 22.5t22 53.5v366q0 31 -22 53.5t-54 22.5h-279zM377 568q21 0 40 -8t32.5 -22t21.5 -32t8 -39v-366q0 -21 -8 -39t-21.5 -32t-32.5 -22t-40 -8h-307v547l-16 21h323z" />
    <glyph glyph-name="E" unicode="E" horiz-adv-x="448" 
d="M54 568h347v-26h-304v-243h237v-25h-237v-248h366v-26h-393v547z" />
    <glyph glyph-name="F" unicode="F" horiz-adv-x="436" 
d="M401 568v-26h-304v-248h237v-25h-237v-269h-27v547l-16 21h347z" />
    <glyph glyph-name="G" unicode="G" horiz-adv-x="510" 
d="M162 -10q-21 0 -39.5 8t-32.5 22t-22 32t-8 39v386q0 21 8 39t22 32t32.5 22t39.5 8h186q21 0 40 -8t32.5 -22t21.5 -32t8 -39v-25h-27v25q0 31 -22 53.5t-54 22.5h-184q-32 0 -54 -22.5t-22 -53.5v-386q0 -31 22 -53.5t54 -22.5h163q41 0 69 28t28 69v131h86l-22 -22
h-37v-221h-27v45q-3 -5 -10 -14t-19.5 -18t-29.5 -16t-39 -7h-163z" />
    <glyph glyph-name="H" unicode="H" horiz-adv-x="536" 
d="M54 568h43v-270h342v270h27v-568h-27v276h-342v-276h-27v547z" />
    <glyph glyph-name="I" unicode="I" horiz-adv-x="177" 
d="M75 0v568h27v-568h-27z" />
    <glyph glyph-name="J" unicode="J" horiz-adv-x="167" 
d="M70 -237v805h27v-778z" />
    <glyph glyph-name="K" unicode="K" horiz-adv-x="474" 
d="M54 568h43v-278l324 278h39l-329 -282l201 -219q16 -17 32.5 -33.5t41.5 -16.5q20 0 32 9t15 14l11 -18q-2 -2 -7 -7.5t-13 -10.5t-19 -9t-24 -4q-17 0 -30 5.5t-23.5 14.5t-19.5 19.5t-18 19.5l-213 233v-283h-27v547z" />
    <glyph glyph-name="L" unicode="L" horiz-adv-x="418" 
d="M70 0v568h27v-543h311v-25h-338z" />
    <glyph glyph-name="M" unicode="M" horiz-adv-x="646" 
d="M323 -21l-226 489v-468h-27v589l253 -546l253 546v-589h-27v468z" />
    <glyph glyph-name="N" unicode="N" horiz-adv-x="553" 
d="M483 568v-589l-386 530v-509h-27v589l386 -530v509h27z" />
    <glyph glyph-name="O" unicode="O" horiz-adv-x="548" 
d="M274 11q99 0 152.5 73.5t53.5 199.5t-53.5 199.5t-152.5 73.5t-152.5 -73.5t-53.5 -199.5t53.5 -199.5t152.5 -73.5zM274 -14q-56 0 -99.5 20.5t-73.5 59t-45.5 94t-15.5 124.5t15.5 124.5t45.5 94t73.5 59t99.5 20.5t99.5 -20.5t73.5 -59t45.5 -94t15.5 -124.5
t-15.5 -124.5t-45.5 -94t-73.5 -59t-99.5 -20.5z" />
    <glyph glyph-name="P" unicode="P" horiz-adv-x="450" 
d="M312 255q32 0 54 22.5t22 53.5v136q0 31 -22 53.5t-54 22.5h-215v-288h215zM313 568q21 0 40 -8t32.5 -22t21.5 -32t8 -39v-136q0 -21 -8 -39t-21.5 -32t-32.5 -22t-40 -8h-216v-230h-27v547l-16 21h259z" />
    <glyph glyph-name="Q" unicode="Q" horiz-adv-x="548" 
d="M1165 -111q-4 -13 -14 -40.5t-29.5 -61t-49 -68.5t-71.5 -63.5t-98.5 -47t-129.5 -18.5q-75 0 -138 22t-115 57.5t-93.5 80t-73 88.5t-53.5 83t-35 65q-53 1 -94.5 22.5t-70.5 59.5t-44.5 92.5t-15.5 123.5t15.5 124.5t45.5 94t73.5 59t99.5 20.5t99.5 -20.5t73.5 -59
t45.5 -94t15.5 -124.5q0 -134 -56.5 -212t-157.5 -85q13 -25 34.5 -62t51.5 -78t69.5 -82.5t88.5 -74t107.5 -53t127.5 -20.5q65 0 116 16t90 41t66.5 56.5t46 61.5t29 56t15.5 41h29zM274 10q49 0 87.5 19t65 55t40 86.5t13.5 113.5q0 126 -53.5 199.5t-152.5 73.5
t-152.5 -73.5t-53.5 -199.5q0 -63 13.5 -113.5t40 -86.5t64.5 -55t88 -19z" />
    <glyph glyph-name="R" unicode="R" horiz-adv-x="489" 
d="M54 568h259q21 0 40 -8t32.5 -22t21.5 -32t8 -39v-126q0 -21 -8 -39t-21.5 -32t-32.5 -22t-40 -8h-77l122 -172q17 -23 29 -37t34 -14q20 0 31.5 9t15.5 14l11 -18q-2 -2 -7 -7.5t-13 -10.5t-19 -9t-24 -4q-29 0 -47 19.5t-35 42.5l-130 187h-107v-240h-27v547zM312 265
q32 0 54 22.5t22 53.5v126q0 31 -22 53.5t-54 22.5h-215v-278h215z" />
    <glyph glyph-name="S" unicode="S" horiz-adv-x="490" 
d="M100 369q-20 14 -32.5 34.5t-12.5 48.5v25q0 21 8 39t22 32t32.5 22t39.5 8h176q21 0 40 -8t32.5 -22t21.5 -32t8 -39v-25h-25v25q0 31 -23 53.5t-55 22.5h-174q-32 0 -54 -22.5t-22 -53.5v-25q0 -19 9 -35.5t24 -26.5l276 -191q19 -14 31.5 -34.5t12.5 -48.5v-25
q0 -21 -8 -39t-22 -32t-32.5 -22t-39.5 -8h-176q-21 0 -40 8t-32.5 22t-21.5 32t-8 39v25h25v-25q0 -31 23 -53.5t55 -22.5h174q32 0 54 22.5t22 53.5v25q0 20 -9 36t-24 27z" />
    <glyph glyph-name="T" unicode="T" horiz-adv-x="470" 
d="M249 284v-284h-28v284h-211v26h211v258h28v-258h211v-26h-211z" />
    <glyph glyph-name="U" unicode="U" horiz-adv-x="531" 
d="M434 0v45q-3 -5 -10 -14t-19.5 -18t-29.5 -16t-39 -7h-169q-21 0 -39.5 8t-32.5 22t-22 32t-8 39v477h27v-477q0 -31 22 -53.5t54 -22.5h169q41 0 69 28t28 69v456h27v-568h-27z" />
    <glyph glyph-name="V" unicode="V" horiz-adv-x="490" 
d="M10 568h27l208 -525l208 525h27l-235 -589z" />
    <glyph glyph-name="W" unicode="W" horiz-adv-x="767" 
d="M36 568l184 -516l163 516l164 -516l183 516h27l-212 -589l-162 513l-162 -513l-211 589h26z" />
    <glyph glyph-name="X" unicode="X" horiz-adv-x="498" 
d="M448 0l-199 262l-199 -262h-35l217 284l-217 284h35l199 -262l199 262h35l-217 -284l217 -284h-35z" />
    <glyph glyph-name="Y" unicode="Y" horiz-adv-x="423" 
d="M90 0l124 208l-214 360h29l200 -335l200 335h29l-339 -568h-29z" />
    <glyph glyph-name="Z" unicode="Z" horiz-adv-x="419" 
d="M15 0l337 541h-332v27h379l-336 -541h336v-27h-384z" />
    <glyph glyph-name="bracketleft" unicode="[" horiz-adv-x="222" 
d="M70 -123v739h112v-25h-87v-689h87v-25h-112z" />
    <glyph glyph-name="backslash" unicode="\" horiz-adv-x="332" 
d="M10 595h29l283 -607h-30z" />
    <glyph glyph-name="bracketright" unicode="]" horiz-adv-x="222" 
d="M40 -123v25h87v689h-87v25h112v-739h-112z" />
    <glyph glyph-name="asciicircum" unicode="^" horiz-adv-x="431" 
d="M40 324l164 351h23l164 -351h-28l-148 316l-147 -316h-28z" />
    <glyph glyph-name="underscore" unicode="_" horiz-adv-x="410" 
d="M0 -22v22h410v-22h-410z" />
    <glyph glyph-name="grave" unicode="`" horiz-adv-x="350" 
d="M127 588h31l65 -145h-21z" />
    <glyph glyph-name="a" unicode="a" horiz-adv-x="443" 
d="M142 -10q-18 0 -34 7t-28 18.5t-18.5 27t-6.5 33.5v269q0 18 6.5 33.5t18.5 27t28 18.5t34 7h136q29 0 52 -16t33 -41l4 47h21v-421h-21l-4 47q-10 -25 -33 -41t-52 -16h-136zM276 13q37 0 62 25t25 62v221q0 37 -25 62t-62 25h-134q-26 0 -44 -18.5t-18 -44.5v-269
q0 -26 18 -44.5t44 -18.5h134z" />
    <glyph glyph-name="b" unicode="b" 
d="M165 -10q-29 0 -52 16t-33 41l-4 -47h-21v638h25v-264q10 25 33 41t52 16h142q18 0 34 -7t28 -18.5t18.5 -27t6.5 -33.5v-269q0 -18 -6.5 -33.5t-18.5 -27t-28 -18.5t-34 -7h-142zM307 13q26 0 44 18.5t18 44.5v269q0 26 -18 44.5t-44 18.5h-140q-37 0 -62 -25t-25 -62
v-221q0 -37 25 -62t62 -25h140z" />
    <glyph glyph-name="c" unicode="c" horiz-adv-x="436" 
d="M386 100v-24q0 -18 -6.5 -33.5t-18.5 -27t-28 -18.5t-34 -7h-157q-18 0 -34 7t-27.5 18.5t-18.5 27t-7 33.5v269q0 18 7 33.5t18.5 27t27.5 18.5t34 7h157q18 0 34 -7t28 -18.5t18.5 -27t6.5 -33.5v-24h-23v24q0 26 -19 44.5t-45 18.5h-157q-26 0 -44 -18.5t-18 -44.5
v-269q0 -26 18 -44.5t44 -18.5h157q26 0 45 18.5t19 44.5v24h23z" />
    <glyph glyph-name="d" unicode="d" 
d="M142 -10q-18 0 -34 7t-28 18.5t-18.5 27t-6.5 33.5v269q0 18 6.5 33.5t18.5 27t28 18.5t34 7h142q29 0 52 -16t33 -41v264h25v-638h-21l-4 47q-10 -25 -33 -41t-52 -16h-142zM282 13q37 0 62 25t25 62v221q0 37 -25 62t-62 25h-140q-26 0 -44 -18.5t-18 -44.5v-269
q0 -26 18 -44.5t44 -18.5h140z" />
    <glyph glyph-name="e" unicode="e" horiz-adv-x="430" 
d="M80 76q0 -26 18 -44.5t44 -18.5h151q26 0 45 18.5t19 44.5v24h23v-24q0 -18 -6.5 -33.5t-18.5 -27t-28 -18.5t-34 -7h-151q-18 0 -34 7t-27.5 18.5t-18.5 27t-7 33.5v269q0 18 7 33.5t18.5 27t27.5 18.5t34 7h151q18 0 34 -7t28 -18.5t18.5 -27t6.5 -33.5v-102l-300 -55
v-112zM80 209l277 51v85q0 26 -19 44.5t-45 18.5h-151q-26 0 -44 -18.5t-18 -44.5v-136z" />
    <glyph glyph-name="f" unicode="f" horiz-adv-x="249" 
d="M243 421v-23h-133v-398h-25v398h-75v23h75v131q0 18 7 33.5t18.5 27t27.5 18.5t34 7h81v-23h-81q-26 0 -44 -18.5t-18 -44.5v-131h133z" />
    <glyph glyph-name="g" unicode="g" horiz-adv-x="443" 
d="M142 -10q-18 0 -34 7t-28 18.5t-18.5 27t-6.5 33.5v269q0 18 6.5 33.5t18.5 27t28 18.5t34 7h136q29 0 52 -16t33 -41l4 47h21v-562q0 -18 -6.5 -33.5t-18.5 -27t-28 -18.5t-34 -7h-157q-18 0 -34 7t-27.5 18.5t-18.5 27t-7 33.5v24h25v-24q0 -26 18 -44.5t44 -18.5h157
q26 0 44 18.5t18 44.5v188q-10 -25 -33 -41t-52 -16h-136zM276 13q37 0 62 25t25 62v221q0 37 -25 62t-62 25h-134q-26 0 -44 -18.5t-18 -44.5v-269q0 -26 18 -44.5t44 -18.5h134z" />
    <glyph glyph-name="h" unicode="h" horiz-adv-x="445" 
d="M167 408q-37 0 -62 -25t-25 -62v-321h-25v638h25v-264q10 25 33 41t52 16h138q18 0 34 -7t28 -18.5t18.5 -27t6.5 -33.5v-345h-25v345q0 26 -18 44.5t-44 18.5h-136v0z" />
    <glyph glyph-name="i" unicode="i" horiz-adv-x="155" 
d="M65 421h25v-421h-25v421zM89 490h-23v78h23v-78z" />
    <glyph glyph-name="j" unicode="j" horiz-adv-x="155" 
d="M89 490h-23v78h23v-78zM65 -237v658h25v-633z" />
    <glyph glyph-name="k" unicode="k" horiz-adv-x="364" 
d="M236 64q14 -17 30 -32.5t39 -15.5q18 0 29.5 8.5t14.5 13.5l10 -17q-4 -5 -18.5 -17t-40.5 -12q-16 0 -28.5 5t-22.5 13t-18.5 18t-16.5 19l-134 162v-209h-25v638h25v-422l239 205h37l-243 -209l123 -148v0z" />
    <glyph glyph-name="l" unicode="l" horiz-adv-x="135" 
d="M55 638h25v-638h-25v638z" />
    <glyph glyph-name="m" unicode="m" horiz-adv-x="672" 
d="M55 421h21l4 -47q10 25 33 41t52 16h96q24 0 43.5 -12.5t30.5 -31.5q11 19 31 31.5t44 12.5h120q18 0 34 -7t28 -18.5t18.5 -27t6.5 -33.5v-345h-25v345q0 26 -18 44.5t-44 18.5h-120q-26 0 -44 -18.5t-18 -44.5v-345h-25v345q0 26 -18 44.5t-44 18.5h-94q-37 0 -62 -25
t-25 -62v-321h-25v421z" />
    <glyph glyph-name="n" unicode="n" horiz-adv-x="445" 
d="M167 408q-37 0 -62 -25t-25 -62v-321h-25v421h21l4 -47q10 25 33 41t52 16h138q18 0 34 -7t28 -18.5t18.5 -27t6.5 -33.5v-345h-25v345q0 26 -18 44.5t-44 18.5h-136v0z" />
    <glyph glyph-name="o" unicode="o" 
d="M80 76q0 -26 18 -44.5t44 -18.5h165q26 0 44 18.5t18 44.5v269q0 26 -18 44.5t-44 18.5h-165q-26 0 -44 -18.5t-18 -44.5v-269zM394 76q0 -18 -6.5 -33.5t-18.5 -27t-28 -18.5t-34 -7h-165q-18 0 -34 7t-27.5 18.5t-18.5 27t-7 33.5v269q0 18 7 33.5t18.5 27t27.5 18.5
t34 7h165q18 0 34 -7t28 -18.5t18.5 -27t6.5 -33.5v-269z" />
    <glyph glyph-name="p" unicode="p" 
d="M165 -10q-29 0 -52 16t-33 41v-264h-25v638h21l4 -47q10 25 33 41t52 16h142q18 0 34 -7t28 -18.5t18.5 -27t6.5 -33.5v-269q0 -18 -6.5 -33.5t-18.5 -27t-28 -18.5t-34 -7h-142zM167 408q-37 0 -62 -25t-25 -62v-221q0 -37 25 -62t62 -25h140q26 0 44 18.5t18 44.5v269
q0 26 -18 44.5t-44 18.5h-140z" />
    <glyph glyph-name="q" unicode="q" 
d="M142 -10q-18 0 -34 7t-28 18.5t-18.5 27t-6.5 33.5v269q0 18 6.5 33.5t18.5 27t28 18.5t34 7h142q29 0 52 -16t33 -41l4 47h21v-638h-25v264q-10 -25 -33 -41t-52 -16h-142zM142 408q-26 0 -44 -18.5t-18 -44.5v-269q0 -26 18 -44.5t44 -18.5h140q37 0 62 25t25 62v221
q0 37 -25 62t-62 25h-140z" />
    <glyph glyph-name="r" unicode="r" horiz-adv-x="233" 
d="M223 398h-56q-37 0 -62 -25t-25 -62v-311h-25v421h21l4 -57q10 25 33 41t52 16h58v-23z" />
    <glyph glyph-name="s" unicode="s" horiz-adv-x="404" 
d="M45 345q0 18 7 33.5t18.5 27t27.5 18.5t34 7h140q18 0 34 -7t28 -18.5t18.5 -27t6.5 -33.5v-24h-23v24q0 26 -19 44t-45 18h-140q-26 0 -44 -18t-18 -44v-24q0 -15 9 -27t23 -19l207 -105q21 -11 35.5 -28.5t14.5 -41.5v-24q0 -18 -6.5 -33.5t-18.5 -27t-28 -18.5t-34 -7
h-140q-18 0 -34 7t-27.5 18.5t-18.5 27t-7 33.5v24h23v-24q0 -26 19 -44t45 -18h140q26 0 44 18t18 44v24q0 16 -9 27.5t-23 18.5l-207 105q-20 11 -35 28.5t-15 41.5v24z" />
    <glyph glyph-name="t" unicode="t" horiz-adv-x="300" 
d="M162 584v-163h128v-23h-128v-398h-25v398h-127v23h127v163h25z" />
    <glyph glyph-name="u" unicode="u" horiz-adv-x="441" 
d="M274 13q37 0 62 25t25 62v321h25v-421h-21l-4 47q-10 -25 -33 -41t-52 -16h-134q-18 0 -34 7t-28 18.5t-18.5 27t-6.5 33.5v345h25v-345q0 -26 18 -44.5t44 -18.5h132z" />
    <glyph glyph-name="v" unicode="v" horiz-adv-x="358" 
d="M353 421l-175 -442l-173 442h27l146 -375l147 375h28z" />
    <glyph glyph-name="w" unicode="w" horiz-adv-x="578" 
d="M421 53l125 368h27l-152 -442l-132 392l-132 -392l-152 442h27l125 -368l132 389z" />
    <glyph glyph-name="x" unicode="x" horiz-adv-x="364" 
d="M327 0l-145 191l-145 -191h-32l161 212l-159 209h32l143 -188l142 188h33l-159 -209l161 -212h-32z" />
    <glyph glyph-name="y" unicode="y" horiz-adv-x="443" 
d="M388 421v-562q0 -18 -6.5 -33.5t-18.5 -27t-28 -18.5t-34 -7h-157q-18 0 -34 7t-27.5 18.5t-18.5 27t-7 33.5v24h25v-24q0 -26 18 -44.5t44 -18.5h157q26 0 44 18.5t18 44.5v188q-10 -25 -33 -41t-52 -16h-136q-18 0 -34 7t-28 18.5t-18.5 27t-6.5 33.5v345h25v-345
q0 -26 18 -44.5t44 -18.5h134q37 0 62 25t25 62v321h25z" />
    <glyph glyph-name="z" unicode="z" horiz-adv-x="353" 
d="M282 395h-257v26h305l-264 -395h262v-26h-309z" />
    <glyph glyph-name="braceleft" unicode="{" horiz-adv-x="210" 
d="M25 258q23 3 38 20t15 39v202q0 41 28 69t69 28h15v-25h-15q-30 0 -51 -21t-21 -51v-202q0 -22 -12.5 -44t-37.5 -27q25 -5 37.5 -26.5t12.5 -43.5v-202q0 -30 21 -51t51 -21h15v-25h-15q-41 0 -69 28t-28 69v202q0 22 -15 39t-38 20v23z" />
    <glyph glyph-name="bar" unicode="|" horiz-adv-x="233" 
d="M105 -190v900h23v-900h-23z" />
    <glyph glyph-name="braceright" unicode="}" horiz-adv-x="210" 
d="M185 235q-23 -3 -38 -20t-15 -39v-202q0 -41 -28 -69t-69 -28h-15v25h15q30 0 51 21t21 51v202q0 22 12.5 43.5t37.5 26.5q-25 5 -37.5 27t-12.5 44v202q0 30 -21 51t-51 21h-15v25h15q41 0 69 -28t28 -69v-202q0 -22 15 -39t38 -20v-23v0z" />
    <glyph glyph-name="asciitilde" unicode="~" horiz-adv-x="551" 
d="M35 190q8 52 37.5 87t78.5 35q30 0 62.5 -15t65.5 -33t64.5 -33t59.5 -15q19 0 35 8t28 21.5t19.5 31t10.5 36.5h20q-8 -52 -37.5 -87t-78.5 -35q-30 0 -62.5 15t-65.5 33t-64.5 33t-59.5 15q-20 0 -35.5 -8t-27.5 -21.5t-19.5 -31t-10.5 -36.5h-20z" />
    <glyph glyph-name="uni00A0" unicode="&#xa0;" horiz-adv-x="180" 
 />
    <glyph glyph-name="exclamdown" unicode="&#xa1;" horiz-adv-x="183" 
d="M103 321l6 -468h-35l6 468h23zM113 378h-43v43h43v-43z" />
    <glyph glyph-name="cent" unicode="&#xa2;" horiz-adv-x="451" 
d="M391 174v-24q0 -18 -6.5 -33.5t-18.5 -27t-28 -18.5t-34 -7h-66v-64h-25v64h-66q-18 0 -34 7t-27.5 18.5t-18.5 27t-7 33.5v269q0 18 7 33.5t18.5 27t27.5 18.5t34 7h66v63h25v-63h66q18 0 34 -7t28 -18.5t18.5 -27t6.5 -33.5v-24h-23v24q0 26 -19 44.5t-45 18.5h-66
v-395h66q26 0 45 18.5t19 44.5v24h23zM85 150q0 -26 18 -44.5t44 -18.5h66v395h-66q-26 0 -44 -18.5t-18 -44.5v-269z" />
    <glyph glyph-name="sterling" unicode="&#xa3;" horiz-adv-x="463" 
d="M30 278h50v199q0 21 8 39t22 32t32.5 22t39.5 8h144q21 0 40 -8t32.5 -22t21.5 -32t8 -39v-25h-25v25q0 31 -23 53.5t-55 22.5h-142q-32 0 -54 -22.5t-22 -53.5v-199h189v-25h-189v-228h321v-25h-398v25h50v228h-50v25z" />
    <glyph glyph-name="yen" unicode="&#xa5;" horiz-adv-x="475" 
d="M258 239h138v-23h-145v-74h145v-23h-145v-119h-27v119h-145v23h145v74h-145v23h137l-206 329h32l195 -311l196 311h32z" />
    <glyph glyph-name="brokenbar" unicode="&#xa6;" horiz-adv-x="233" 
d="M105 330v380h23v-380h-23zM105 -190v391h23v-391h-23z" />
    <glyph glyph-name="section" unicode="&#xa7;" horiz-adv-x="374" 
d="M239 578q20 0 37.5 -7.5t30 -20.5t20 -30t7.5 -36v-24h-24v24q0 29 -21 49t-50 20h-104q-29 0 -49.5 -20t-20.5 -49v-60q0 -18 10.5 -33t27.5 -24l174 -113q24 -13 40.5 -33.5t16.5 -48.5v-297q0 -19 -7.5 -36t-20 -30t-30 -20.5t-36.5 -7.5h-105q-20 0 -37.5 7.5
t-30 20.5t-20 30t-7.5 36v24h24v-24q0 -29 21 -49t50 -20h104q29 0 49.5 20t20.5 49v59q0 18 -10.5 33t-27.5 24l-174 113q-24 13 -40.5 33.5t-16.5 48.5v298q0 19 7.5 36t20 30t29.5 20.5t37 7.5h105zM310 172q0 19 -12 34.5t-33 27.5l-174 112q-15 9 -27 21v-181
q0 -19 12 -34.5t33 -27.5l174 -112q8 -4 14.5 -9.5t12.5 -11.5v181z" />
    <glyph glyph-name="dieresis" unicode="&#xa8;" horiz-adv-x="350" 
d="M231 477v90h25v-90h-25zM93 477v90h25v-90h-25z" />
    <glyph glyph-name="copyright" unicode="&#xa9;" horiz-adv-x="648" 
d="M618 284q0 -61 -23 -114.5t-63 -93.5t-93.5 -63t-114.5 -23t-114.5 23t-93.5 63t-63 93.5t-23 114.5t23 114.5t63 93.5t93.5 63t114.5 23t114.5 -23t93.5 -63t63 -93.5t23 -114.5zM596 284q0 55 -21.5 105t-59 87.5t-87 59.5t-104.5 22q-56 0 -105 -22t-86.5 -59.5
t-59 -87.5t-21.5 -105q0 -56 21.5 -105.5t59 -87t86.5 -59.5t105 -22q55 0 104.5 22t87 59.5t59 87t21.5 105.5zM210 379q0 28 19.5 47.5t47.5 19.5h91q29 0 48 -19.5t19 -47.5v-26h-22v23q0 20 -14.5 33.5t-34.5 13.5h-83q-20 0 -33.5 -13.5t-13.5 -33.5v-184
q0 -20 13.5 -34t33.5 -14h83q20 0 34.5 14t14.5 34v22h22v-25q0 -28 -19 -47.5t-48 -19.5h-90q-28 0 -48 19.5t-20 47.5v190z" />
    <glyph glyph-name="guillemotleft" unicode="&#xab;" horiz-adv-x="290" 
d="M30 240l90 179h29l-91 -179l91 -180h-29zM131 240l90 179h29l-91 -179l91 -180h-29z" />
    <glyph glyph-name="registered" unicode="&#xae;" horiz-adv-x="502" 
d="M472 357q0 -46 -17.5 -86t-47.5 -70t-70 -47.5t-86 -17.5t-86 17.5t-70 47.5t-47.5 70t-17.5 86t17.5 86t47.5 70t70 47.5t86 17.5t86 -17.5t70 -47.5t47.5 -70t17.5 -86zM451 357q0 42 -15.5 78.5t-42.5 63.5t-63.5 43t-78.5 16t-78.5 -16t-63.5 -43t-42.5 -63.5
t-15.5 -78.5t15.5 -78.5t42.5 -63.5t63.5 -43t78.5 -16t78.5 16t63.5 43t42.5 63.5t15.5 78.5zM178 474h99q20 0 35 -15t15 -35v-41q0 -20 -14 -34.5t-34 -15.5l65 -93h-24l-64 92h-58v-92h-20v234zM271 350q16 0 26 10t10 25v36q0 14 -10 24.5t-26 10.5h-73v-106h73z" />
    <glyph glyph-name="macron" unicode="&#xaf;" horiz-adv-x="350" 
d="M27 483v25h296v-25h-296z" />
    <glyph glyph-name="degree" unicode="&#xb0;" horiz-adv-x="283" 
d="M65 438q0 -16 11 -28t26 -12h79q15 0 26 12t11 28v77q0 16 -11 28t-26 12h-79q-15 0 -26 -12t-11 -28v-77zM40 515q0 26 18 44.5t44 18.5h79q26 0 44 -18.5t18 -44.5v-77q0 -26 -18 -44.5t-44 -18.5h-79q-26 0 -44 18.5t-18 44.5v77z" />
    <glyph glyph-name="acute" unicode="&#xb4;" horiz-adv-x="350" 
d="M148 443h-21l65 145h31z" />
    <glyph glyph-name="paragraph" unicode="&#xb6;" horiz-adv-x="386" 
d="M312 -60v604h-58v-544h-24v202h-98q-25 0 -47.5 9.5t-39 26t-26 39t-9.5 47.5v122q0 25 9.5 47.5t26 39t39 26t47.5 9.5h204v-628h-24z" />
    <glyph glyph-name="periodcentered" unicode="&#xb7;" horiz-adv-x="203" 
d="M80 363h43v-43h-43v43z" />
    <glyph glyph-name="cedilla" unicode="&#xb8;" horiz-adv-x="350" 
d="M148 -132h-21l65 145h31z" />
    <glyph glyph-name="guillemotright" unicode="&#xbb;" horiz-adv-x="290" 
d="M170 60h-29l91 180l-91 179h29l90 -179zM69 60h-29l91 180l-91 179h29l90 -179z" />
    <glyph glyph-name="questiondown" unicode="&#xbf;" horiz-adv-x="435" 
d="M281 378h-43v43h43v-43zM273 321v-98q0 -32 -17.5 -56.5t-45.5 -36.5l-110 -50q-20 -8 -32 -27t-12 -41v-68q0 -31 22.5 -53.5t54.5 -22.5h149q32 0 55 22.5t23 53.5v25h25v-25q0 -21 -8 -39t-21.5 -32t-32.5 -22t-40 -8h-151q-21 0 -39.5 8t-32.5 22t-22 32t-8 39v68
q0 30 16.5 55t42.5 37l111 49q20 9 34 28t14 42v98h25z" />
    <glyph glyph-name="Agrave" unicode="&#xc0;" horiz-adv-x="500" 
d="M157 766h31l65 -145h-21zM114 190l-77 -190h-27l240 589l240 -589h-27l-77 190h-272zM376 215l-126 312l-126 -312h252z" />
    <glyph glyph-name="Aacute" unicode="&#xc1;" horiz-adv-x="500" 
d="M268 621h-21l65 145h31zM114 190l-77 -190h-27l240 589l240 -589h-27l-77 190h-272zM376 215l-126 312l-126 -312h252z" />
    <glyph glyph-name="Acircumflex" unicode="&#xc2;" horiz-adv-x="500" 
d="M330 621h-19l-61 114l-61 -114h-19l69 145h22zM114 190l-77 -190h-27l240 589l240 -589h-27l-77 190h-272zM376 215l-126 312l-126 -312h252z" />
    <glyph glyph-name="Atilde" unicode="&#xc3;" horiz-adv-x="500" 
d="M374 708q-4 -27 -20.5 -45t-42.5 -18q-17 0 -32.5 6.5t-30.5 14t-29.5 14t-29.5 6.5q-16 0 -29 -10.5t-17 -31.5h-17q4 27 20.5 45t42.5 18q17 0 32.5 -6.5t30.5 -14t29.5 -14t29.5 -6.5q16 0 29 10.5t17 31.5h17zM114 190l-77 -190h-27l240 589l240 -589h-27l-77 190
h-272zM376 215l-126 312l-126 -312h252z" />
    <glyph glyph-name="Adieresis" unicode="&#xc4;" horiz-adv-x="500" 
d="M306 654v90h25v-90h-25zM168 654v90h25v-90h-25zM114 190l-77 -190h-27l240 589l240 -589h-27l-77 190h-272zM376 215l-126 312l-126 -312h252z" />
    <glyph glyph-name="Aring" unicode="&#xc5;" horiz-adv-x="500" 
d="M329 699q0 -33 -23 -56t-56 -23q-32 0 -55.5 23t-23.5 56q0 32 23 55t55 23q33 0 56.5 -23t23.5 -55zM307 699q0 23 -16.5 39.5t-40.5 16.5q-23 0 -40 -16.5t-17 -39.5q0 -24 16.5 -40.5t39.5 -16.5q24 0 40.5 16.5t16.5 40.5h1zM114 190l-77 -190h-27l240 589l240 -589
h-27l-77 190h-272zM376 215l-126 312l-126 -312h252z" />
    <glyph glyph-name="AE" unicode="&#xc6;" horiz-adv-x="708" 
d="M330 0v181h-197l-104 -181h-29l329 568h332v-26h-304v-243h237v-25h-237v-248h366v-26h-393zM330 520l-182 -314h182v314z" />
    <glyph glyph-name="Ccedilla" unicode="&#xc7;" horiz-adv-x="505" 
d="M450 116v-25q0 -21 -8 -39t-21.5 -32t-32.5 -22t-40 -8h-78l-63 -122h-21l54 122h-78q-21 0 -39.5 8t-32.5 22t-22 32t-8 39v386q0 21 8 39t22 32t32.5 22t39.5 8h186q21 0 40 -8t32.5 -22t21.5 -32t8 -39v-25h-27v25q0 31 -22 53.5t-54 22.5h-184q-32 0 -54 -22.5
t-22 -53.5v-386q0 -31 22 -53.5t54 -22.5h184q32 0 54 22.5t22 53.5v25h27z" />
    <glyph glyph-name="Egrave" unicode="&#xc8;" horiz-adv-x="448" 
d="M150 766h31l65 -145h-21zM70 0v568h331v-26h-304v-243h237v-25h-237v-248h366v-26h-393z" />
    <glyph glyph-name="Eacute" unicode="&#xc9;" horiz-adv-x="448" 
d="M246 621h-21l65 145h31zM70 0v568h331v-26h-304v-243h237v-25h-237v-248h366v-26h-393z" />
    <glyph glyph-name="Ecircumflex" unicode="&#xca;" horiz-adv-x="448" 
d="M316 621h-19l-61 114l-61 -114h-19l69 145h22zM70 0v568h331v-26h-304v-243h237v-25h-237v-248h366v-26h-393z" />
    <glyph glyph-name="Edieresis" unicode="&#xcb;" horiz-adv-x="448" 
d="M293 654v90h25v-90h-25zM155 654v90h25v-90h-25zM70 0v568h331v-26h-304v-243h237v-25h-237v-248h366v-26h-393z" />
    <glyph glyph-name="Igrave" unicode="&#xcc;" horiz-adv-x="177" 
d="M75 0v568h27v-568h-27zM3 766h31l65 -145h-21z" />
    <glyph glyph-name="Iacute" unicode="&#xcd;" horiz-adv-x="177" 
d="M75 0v568h27v-568h-27zM99 621h-21l65 145h31z" />
    <glyph glyph-name="Icircumflex" unicode="&#xce;" horiz-adv-x="177" 
d="M168 621h-19l-61 114l-61 -114h-19l69 145h22zM75 0v568h27v-568h-27z" />
    <glyph glyph-name="Idieresis" unicode="&#xcf;" horiz-adv-x="177" 
d="M145 654v90h25v-90h-25zM7 654v90h25v-90h-25zM75 0v568h27v-568h-27z" />
    <glyph glyph-name="Eth" unicode="&#xd0;" horiz-adv-x="539" 
d="M54 568h323q21 0 40 -8t32.5 -22t21.5 -32t8 -39v-366q0 -21 -8 -39t-21.5 -32t-32.5 -22t-40 -8h-307v283h-50v25h50v239zM97 543v-235h109v-25h-109v-258h279q32 0 54 22.5t22 53.5v366q0 31 -22 53.5t-54 22.5h-279z" />
    <glyph glyph-name="Ntilde" unicode="&#xd1;" horiz-adv-x="553" 
d="M400 708q-4 -27 -20.5 -45t-42.5 -18q-17 0 -32.5 6.5t-30.5 14t-29.5 14t-29.5 6.5q-16 0 -29 -10.5t-17 -31.5h-17q4 27 20.5 45t42.5 18q17 0 32.5 -6.5t30.5 -14t29.5 -14t29.5 -6.5q16 0 29 10.5t17 31.5h17zM483 568v-589l-386 530v-509h-27v589l386 -530v509h27z
" />
    <glyph glyph-name="Ograve" unicode="&#xd2;" horiz-adv-x="548" 
d="M189 766h31l65 -145h-21zM274 11q99 0 152.5 73.5t53.5 199.5t-53.5 199.5t-152.5 73.5t-152.5 -73.5t-53.5 -199.5t53.5 -199.5t152.5 -73.5zM274 -14q-56 0 -99.5 20.5t-73.5 59t-45.5 94t-15.5 124.5t15.5 124.5t45.5 94t73.5 59t99.5 20.5t99.5 -20.5t73.5 -59
t45.5 -94t15.5 -124.5t-15.5 -124.5t-45.5 -94t-73.5 -59t-99.5 -20.5z" />
    <glyph glyph-name="Oacute" unicode="&#xd3;" horiz-adv-x="548" 
d="M283 621h-21l65 145h31zM274 11q99 0 152.5 73.5t53.5 199.5t-53.5 199.5t-152.5 73.5t-152.5 -73.5t-53.5 -199.5t53.5 -199.5t152.5 -73.5zM274 -14q-56 0 -99.5 20.5t-73.5 59t-45.5 94t-15.5 124.5t15.5 124.5t45.5 94t73.5 59t99.5 20.5t99.5 -20.5t73.5 -59
t45.5 -94t15.5 -124.5t-15.5 -124.5t-45.5 -94t-73.5 -59t-99.5 -20.5z" />
    <glyph glyph-name="Ocircumflex" unicode="&#xd4;" horiz-adv-x="548" 
d="M354 621h-19l-61 114l-61 -114h-19l69 145h22zM274 11q99 0 152.5 73.5t53.5 199.5t-53.5 199.5t-152.5 73.5t-152.5 -73.5t-53.5 -199.5t53.5 -199.5t152.5 -73.5zM274 -14q-56 0 -99.5 20.5t-73.5 59t-45.5 94t-15.5 124.5t15.5 124.5t45.5 94t73.5 59t99.5 20.5
t99.5 -20.5t73.5 -59t45.5 -94t15.5 -124.5t-15.5 -124.5t-45.5 -94t-73.5 -59t-99.5 -20.5z" />
    <glyph glyph-name="Otilde" unicode="&#xd5;" horiz-adv-x="548" 
d="M398 708q-4 -27 -20.5 -45t-42.5 -18q-17 0 -32.5 6.5t-30.5 14t-29.5 14t-29.5 6.5q-16 0 -29 -10.5t-17 -31.5h-17q4 27 20.5 45t42.5 18q17 0 32.5 -6.5t30.5 -14t29.5 -14t29.5 -6.5q16 0 29 10.5t17 31.5h17zM274 11q99 0 152.5 73.5t53.5 199.5t-53.5 199.5
t-152.5 73.5t-152.5 -73.5t-53.5 -199.5t53.5 -199.5t152.5 -73.5zM274 -14q-56 0 -99.5 20.5t-73.5 59t-45.5 94t-15.5 124.5t15.5 124.5t45.5 94t73.5 59t99.5 20.5t99.5 -20.5t73.5 -59t45.5 -94t15.5 -124.5t-15.5 -124.5t-45.5 -94t-73.5 -59t-99.5 -20.5z" />
    <glyph glyph-name="Odieresis" unicode="&#xd6;" horiz-adv-x="548" 
d="M330 654v90h25v-90h-25zM192 654v90h25v-90h-25zM274 11q99 0 152.5 73.5t53.5 199.5t-53.5 199.5t-152.5 73.5t-152.5 -73.5t-53.5 -199.5t53.5 -199.5t152.5 -73.5zM274 -14q-56 0 -99.5 20.5t-73.5 59t-45.5 94t-15.5 124.5t15.5 124.5t45.5 94t73.5 59t99.5 20.5
t99.5 -20.5t73.5 -59t45.5 -94t15.5 -124.5t-15.5 -124.5t-45.5 -94t-73.5 -59t-99.5 -20.5z" />
    <glyph glyph-name="multiply" unicode="&#xd7;" horiz-adv-x="585" 
d="M497 16l-205 206l-204 -205l-18 17l205 206l-205 205l18 18l204 -205l205 206l18 -18l-205 -206l205 -206z" />
    <glyph glyph-name="Oslash" unicode="&#xd8;" horiz-adv-x="548" 
d="M274 -16q-40 0 -73.5 10.5t-60.5 30.5l-47 -82l-20 14l48 84q-81 79 -81 243q0 70 15.5 125.5t45.5 94.5t73.5 59.5t99.5 20.5q77 0 133 -42l48 83l20 -14l-49 -85q40 -38 61 -99.5t21 -142.5q0 -70 -15.5 -125.5t-45.5 -94.5t-73.5 -59.5t-99.5 -20.5zM274 9
q100 0 153.5 73t53.5 202q0 72 -17.5 127.5t-50.5 90.5l-260 -454q50 -39 121 -39zM67 284q0 -148 68 -219l259 454q-49 40 -120 40q-100 0 -153.5 -73t-53.5 -202z" />
    <glyph glyph-name="Ugrave" unicode="&#xd9;" horiz-adv-x="531" 
d="M178 766h31l65 -145h-21zM434 0v45q-3 -5 -10 -14t-19.5 -18t-29.5 -16t-39 -7h-169q-21 0 -39.5 8t-32.5 22t-22 32t-8 39v477h27v-477q0 -31 22 -53.5t54 -22.5h169q41 0 69 28t28 69v456h27v-568h-27z" />
    <glyph glyph-name="Uacute" unicode="&#xda;" horiz-adv-x="531" 
d="M272 621h-21l65 145h31zM434 0v45q-3 -5 -10 -14t-19.5 -18t-29.5 -16t-39 -7h-169q-21 0 -39.5 8t-32.5 22t-22 32t-8 39v477h27v-477q0 -31 22 -53.5t54 -22.5h169q41 0 69 28t28 69v456h27v-568h-27z" />
    <glyph glyph-name="Ucircumflex" unicode="&#xdb;" horiz-adv-x="531" 
d="M342 621h-19l-61 114l-61 -114h-19l69 145h22zM434 0v45q-3 -5 -10 -14t-19.5 -18t-29.5 -16t-39 -7h-169q-21 0 -39.5 8t-32.5 22t-22 32t-8 39v477h27v-477q0 -31 22 -53.5t54 -22.5h169q41 0 69 28t28 69v456h27v-568h-27z" />
    <glyph glyph-name="Udieresis" unicode="&#xdc;" horiz-adv-x="531" 
d="M319 654v90h25v-90h-25zM181 654v90h25v-90h-25zM434 0v45q-3 -5 -10 -14t-19.5 -18t-29.5 -16t-39 -7h-169q-21 0 -39.5 8t-32.5 22t-22 32t-8 39v477h27v-477q0 -31 22 -53.5t54 -22.5h169q41 0 69 28t28 69v456h27v-568h-27z" />
    <glyph glyph-name="Yacute" unicode="&#xdd;" horiz-adv-x="423" 
d="M243 620h-21l65 145h31zM90 0l124 208l-214 360h29l200 -335l200 335h29l-339 -568h-29z" />
    <glyph glyph-name="Thorn" unicode="&#xde;" horiz-adv-x="450" 
d="M97 453h216q21 0 40 -8t32.5 -22t21.5 -32t8 -39v-136q0 -21 -8 -39t-21.5 -32t-32.5 -22t-40 -8h-216v-115h-27v568h27v-115zM97 428v-288h215q32 0 54 22.5t22 53.5v136q0 31 -22 53.5t-54 22.5h-215z" />
    <glyph glyph-name="germandbls" unicode="&#xdf;" horiz-adv-x="424" 
d="M329 492q0 26 -18 44.5t-44 18.5h-125q-26 0 -44 -18.5t-18 -44.5v-552h-25v552q0 18 7 33.5t18.5 27t27.5 18.5t34 7h125q18 0 34 -7t28 -18.5t18.5 -27t6.5 -33.5v-117q0 -28 -15.5 -50.5t-40.5 -32.5q31 -6 51 -31t20 -57v-118q0 -18 -6.5 -33.5t-18.5 -27t-28 -18.5
t-34 -7h-155v23h155q26 0 44 18.5t18 44.5v118q0 32 -22.5 53.5t-55.5 21.5h-139v21h124q33 0 55.5 21.5t22.5 53.5v117z" />
    <glyph glyph-name="agrave" unicode="&#xe0;" horiz-adv-x="443" 
d="M136 605h31l65 -145h-21zM142 -10q-18 0 -34 7t-28 18.5t-18.5 27t-6.5 33.5v269q0 18 6.5 33.5t18.5 27t28 18.5t34 7h136q29 0 52 -16t33 -41l4 47h21v-421h-21l-4 47q-10 -25 -33 -41t-52 -16h-136zM276 13q37 0 62 25t25 62v221q0 37 -25 62t-62 25h-134
q-26 0 -44 -18.5t-18 -44.5v-269q0 -26 18 -44.5t44 -18.5h134z" />
    <glyph glyph-name="aacute" unicode="&#xe1;" horiz-adv-x="443" 
d="M232 460h-21l65 145h31zM142 -10q-18 0 -34 7t-28 18.5t-18.5 27t-6.5 33.5v269q0 18 6.5 33.5t18.5 27t28 18.5t34 7h136q29 0 52 -16t33 -41l4 47h21v-421h-21l-4 47q-10 -25 -33 -41t-52 -16h-136zM276 13q37 0 62 25t25 62v221q0 37 -25 62t-62 25h-134
q-26 0 -44 -18.5t-18 -44.5v-269q0 -26 18 -44.5t44 -18.5h134z" />
    <glyph glyph-name="acircumflex" unicode="&#xe2;" horiz-adv-x="443" 
d="M302 460h-19l-61 114l-61 -114h-19l69 145h22zM142 -10q-18 0 -34 7t-28 18.5t-18.5 27t-6.5 33.5v269q0 18 6.5 33.5t18.5 27t28 18.5t34 7h136q29 0 52 -16t33 -41l4 47h21v-421h-21l-4 47q-10 -25 -33 -41t-52 -16h-136zM276 13q37 0 62 25t25 62v221q0 37 -25 62
t-62 25h-134q-26 0 -44 -18.5t-18 -44.5v-269q0 -26 18 -44.5t44 -18.5h134z" />
    <glyph glyph-name="atilde" unicode="&#xe3;" horiz-adv-x="443" 
d="M347 549q-4 -27 -20.5 -45t-42.5 -18q-17 0 -32.5 6.5t-30.5 14t-29.5 14t-29.5 6.5q-16 0 -29 -10.5t-17 -31.5h-17q4 27 20.5 45t42.5 18q17 0 32.5 -6.5t30.5 -14t29.5 -14t29.5 -6.5q16 0 29 10.5t17 31.5h17zM142 -10q-18 0 -34 7t-28 18.5t-18.5 27t-6.5 33.5v269
q0 18 6.5 33.5t18.5 27t28 18.5t34 7h136q29 0 52 -16t33 -41l4 47h21v-421h-21l-4 47q-10 -25 -33 -41t-52 -16h-136zM276 13q37 0 62 25t25 62v221q0 37 -25 62t-62 25h-134q-26 0 -44 -18.5t-18 -44.5v-269q0 -26 18 -44.5t44 -18.5h134z" />
    <glyph glyph-name="adieresis" unicode="&#xe4;" horiz-adv-x="443" 
d="M278 495v90h25v-90h-25zM140 495v90h25v-90h-25zM142 -10q-18 0 -34 7t-28 18.5t-18.5 27t-6.5 33.5v269q0 18 6.5 33.5t18.5 27t28 18.5t34 7h136q29 0 52 -16t33 -41l4 47h21v-421h-21l-4 47q-10 -25 -33 -41t-52 -16h-136zM276 13q37 0 62 25t25 62v221q0 37 -25 62
t-62 25h-134q-26 0 -44 -18.5t-18 -44.5v-269q0 -26 18 -44.5t44 -18.5h134z" />
    <glyph glyph-name="aring" unicode="&#xe5;" horiz-adv-x="443" 
d="M301 549q0 -33 -23 -56t-56 -23q-32 0 -55.5 23t-23.5 56q0 32 23 55t55 23q33 0 56.5 -23t23.5 -55zM279 549q0 23 -16.5 39.5t-40.5 16.5q-23 0 -40 -16.5t-17 -39.5q0 -24 16.5 -40.5t39.5 -16.5q24 0 40.5 16.5t16.5 40.5h1zM142 -10q-18 0 -34 7t-28 18.5t-18.5 27
t-6.5 33.5v269q0 18 6.5 33.5t18.5 27t28 18.5t34 7h136q29 0 52 -16t33 -41l4 47h21v-421h-21l-4 47q-10 -25 -33 -41t-52 -16h-136zM276 13q37 0 62 25t25 62v221q0 37 -25 62t-62 25h-134q-26 0 -44 -18.5t-18 -44.5v-269q0 -26 18 -44.5t44 -18.5h134z" />
    <glyph glyph-name="ae" unicode="&#xe6;" horiz-adv-x="714" 
d="M339 259q-11 -9 -25 -14l-207 -64q-14 -5 -23 -18t-9 -29v-58q0 -26 18 -44.5t44 -18.5h134q27 0 47.5 19.5t20.5 43.5v183zM426 -10q-24 0 -44 12.5t-31 31.5q-11 -19 -30.5 -31.5t-43.5 -12.5h-140q-18 0 -34 7t-28 18.5t-18.5 27t-6.5 33.5v58q0 24 13.5 43.5
t36.5 26.5l207 64q14 5 23 18t9 28v31q0 26 -18 44.5t-44 18.5h-135q-26 0 -45 -18.5t-19 -44.5v-24h-23v24q0 18 6.5 33.5t18.5 27t28 18.5t34 7h135q24 0 43.5 -12.5t30.5 -31.5q11 19 31 31.5t44 12.5h151q18 0 34 -7t28 -18.5t18.5 -27t6.5 -33.5v-102l-300 -55v-112v-4
q2 -24 19.5 -41.5t42.5 -17.5h151q26 0 45 18.5t19 44.5v24h23v-24q0 -18 -6.5 -33.5t-18.5 -27t-28 -18.5t-34 -7h-151zM364 209l277 51v85q0 26 -19 44.5t-45 18.5h-151q-26 0 -44 -18.5t-18 -44.5v-136z" />
    <glyph glyph-name="ccedilla" unicode="&#xe7;" horiz-adv-x="436" 
d="M386 100v-24q0 -18 -6.5 -33.5t-18.5 -27t-28 -18.5t-34 -7h-67l-63 -122h-21l54 122h-60q-18 0 -34 7t-27.5 18.5t-18.5 27t-7 33.5v269q0 18 7 33.5t18.5 27t27.5 18.5t34 7h157q18 0 34 -7t28 -18.5t18.5 -27t6.5 -33.5v-24h-23v24q0 26 -19 44.5t-45 18.5h-157
q-26 0 -44 -18.5t-18 -44.5v-269q0 -26 18 -44.5t44 -18.5h157q26 0 45 18.5t19 44.5v24h23z" />
    <glyph glyph-name="egrave" unicode="&#xe8;" horiz-adv-x="430" 
d="M133 605h31l65 -145h-21zM80 76q0 -26 18 -44.5t44 -18.5h151q26 0 45 18.5t19 44.5v24h23v-24q0 -18 -6.5 -33.5t-18.5 -27t-28 -18.5t-34 -7h-151q-18 0 -34 7t-27.5 18.5t-18.5 27t-7 33.5v269q0 18 7 33.5t18.5 27t27.5 18.5t34 7h151q18 0 34 -7t28 -18.5t18.5 -27
t6.5 -33.5v-102l-300 -55v-112zM80 209l277 51v85q0 26 -19 44.5t-45 18.5h-151q-26 0 -44 -18.5t-18 -44.5v-136z" />
    <glyph glyph-name="eacute" unicode="&#xe9;" horiz-adv-x="430" 
d="M228 460h-21l65 145h31zM80 76q0 -26 18 -44.5t44 -18.5h151q26 0 45 18.5t19 44.5v24h23v-24q0 -18 -6.5 -33.5t-18.5 -27t-28 -18.5t-34 -7h-151q-18 0 -34 7t-27.5 18.5t-18.5 27t-7 33.5v269q0 18 7 33.5t18.5 27t27.5 18.5t34 7h151q18 0 34 -7t28 -18.5t18.5 -27
t6.5 -33.5v-102l-300 -55v-112zM80 209l277 51v85q0 26 -19 44.5t-45 18.5h-151q-26 0 -44 -18.5t-18 -44.5v-136z" />
    <glyph glyph-name="ecircumflex" unicode="&#xea;" horiz-adv-x="430" 
d="M298 460h-19l-61 114l-61 -114h-19l69 145h22zM80 76q0 -26 18 -44.5t44 -18.5h151q26 0 45 18.5t19 44.5v24h23v-24q0 -18 -6.5 -33.5t-18.5 -27t-28 -18.5t-34 -7h-151q-18 0 -34 7t-27.5 18.5t-18.5 27t-7 33.5v269q0 18 7 33.5t18.5 27t27.5 18.5t34 7h151
q18 0 34 -7t28 -18.5t18.5 -27t6.5 -33.5v-102l-300 -55v-112zM80 209l277 51v85q0 26 -19 44.5t-45 18.5h-151q-26 0 -44 -18.5t-18 -44.5v-136z" />
    <glyph glyph-name="edieresis" unicode="&#xeb;" horiz-adv-x="430" 
d="M274 495v90h25v-90h-25zM136 495v90h25v-90h-25zM80 76q0 -26 18 -44.5t44 -18.5h151q26 0 45 18.5t19 44.5v24h23v-24q0 -18 -6.5 -33.5t-18.5 -27t-28 -18.5t-34 -7h-151q-18 0 -34 7t-27.5 18.5t-18.5 27t-7 33.5v269q0 18 7 33.5t18.5 27t27.5 18.5t34 7h151
q18 0 34 -7t28 -18.5t18.5 -27t6.5 -33.5v-102l-300 -55v-112zM80 209l277 51v85q0 26 -19 44.5t-45 18.5h-151q-26 0 -44 -18.5t-18 -44.5v-136z" />
    <glyph glyph-name="igrave" unicode="&#xec;" horiz-adv-x="155" 
d="M65 421h25v-421h-25v421zM-8 605h31l65 -145h-21z" />
    <glyph glyph-name="iacute" unicode="&#xed;" horiz-adv-x="155" 
d="M65 421h25v-421h-25v421zM88 460h-21l65 145h31z" />
    <glyph glyph-name="icircumflex" unicode="&#xee;" horiz-adv-x="155" 
d="M158 460h-19l-61 114l-61 -114h-19l69 145h22zM65 421h25v-421h-25v421z" />
    <glyph glyph-name="idieresis" unicode="&#xef;" horiz-adv-x="155" 
d="M134 495v90h25v-90h-25zM-4 495v90h25v-90h-25zM65 421h25v-421h-25v421z" />
    <glyph glyph-name="eth" unicode="&#xf0;" 
d="M142 -10q-18 0 -34 7t-28 18.5t-18.5 27t-6.5 33.5v269q0 18 6.5 33.5t18.5 27t28 18.5t34 7h142q29 0 52 -16t33 -41v137l-48 7v26l48 -8v102h25v-106l48 -7v-25l-48 7v-507h-21l-4 47q-10 -25 -33 -41t-52 -16h-142zM282 13q37 0 62 25t25 62v221q0 37 -25 62t-62 25
h-140q-26 0 -44 -18.5t-18 -44.5v-269q0 -26 18 -44.5t44 -18.5h140z" />
    <glyph glyph-name="ntilde" unicode="&#xf1;" horiz-adv-x="445" 
d="M346 549q-4 -27 -20.5 -45t-42.5 -18q-17 0 -32.5 6.5t-30.5 14t-29.5 14t-29.5 6.5q-16 0 -29 -10.5t-17 -31.5h-17q4 27 20.5 45t42.5 18q17 0 32.5 -6.5t30.5 -14t29.5 -14t29.5 -6.5q16 0 29 10.5t17 31.5h17zM167 408q-37 0 -62 -25t-25 -62v-321h-25v421h21l4 -47
q10 25 33 41t52 16h138q18 0 34 -7t28 -18.5t18.5 -27t6.5 -33.5v-345h-25v345q0 26 -18 44.5t-44 18.5h-136z" />
    <glyph glyph-name="ograve" unicode="&#xf2;" 
d="M139 605h31l65 -145h-21zM80 76q0 -26 18 -44.5t44 -18.5h165q26 0 44 18.5t18 44.5v269q0 26 -18 44.5t-44 18.5h-165q-26 0 -44 -18.5t-18 -44.5v-269zM394 76q0 -18 -6.5 -33.5t-18.5 -27t-28 -18.5t-34 -7h-165q-18 0 -34 7t-27.5 18.5t-18.5 27t-7 33.5v269
q0 18 7 33.5t18.5 27t27.5 18.5t34 7h165q18 0 34 -7t28 -18.5t18.5 -27t6.5 -33.5v-269z" />
    <glyph glyph-name="oacute" unicode="&#xf3;" 
d="M234 460h-21l65 145h31zM80 76q0 -26 18 -44.5t44 -18.5h165q26 0 44 18.5t18 44.5v269q0 26 -18 44.5t-44 18.5h-165q-26 0 -44 -18.5t-18 -44.5v-269zM394 76q0 -18 -6.5 -33.5t-18.5 -27t-28 -18.5t-34 -7h-165q-18 0 -34 7t-27.5 18.5t-18.5 27t-7 33.5v269
q0 18 7 33.5t18.5 27t27.5 18.5t34 7h165q18 0 34 -7t28 -18.5t18.5 -27t6.5 -33.5v-269z" />
    <glyph glyph-name="ocircumflex" unicode="&#xf4;" 
d="M304 460h-19l-61 114l-61 -114h-19l69 145h22zM80 76q0 -26 18 -44.5t44 -18.5h165q26 0 44 18.5t18 44.5v269q0 26 -18 44.5t-44 18.5h-165q-26 0 -44 -18.5t-18 -44.5v-269zM394 76q0 -18 -6.5 -33.5t-18.5 -27t-28 -18.5t-34 -7h-165q-18 0 -34 7t-27.5 18.5t-18.5 27
t-7 33.5v269q0 18 7 33.5t18.5 27t27.5 18.5t34 7h165q18 0 34 -7t28 -18.5t18.5 -27t6.5 -33.5v-269z" />
    <glyph glyph-name="otilde" unicode="&#xf5;" 
d="M348 549q-4 -27 -20.5 -45t-42.5 -18q-17 0 -32.5 6.5t-30.5 14t-29.5 14t-29.5 6.5q-16 0 -29 -10.5t-17 -31.5h-17q4 27 20.5 45t42.5 18q17 0 32.5 -6.5t30.5 -14t29.5 -14t29.5 -6.5q16 0 29 10.5t17 31.5h17zM80 76q0 -26 18 -44.5t44 -18.5h165q26 0 44 18.5
t18 44.5v269q0 26 -18 44.5t-44 18.5h-165q-26 0 -44 -18.5t-18 -44.5v-269zM394 76q0 -18 -6.5 -33.5t-18.5 -27t-28 -18.5t-34 -7h-165q-18 0 -34 7t-27.5 18.5t-18.5 27t-7 33.5v269q0 18 7 33.5t18.5 27t27.5 18.5t34 7h165q18 0 34 -7t28 -18.5t18.5 -27t6.5 -33.5
v-269z" />
    <glyph glyph-name="odieresis" unicode="&#xf6;" 
d="M280 495v90h25v-90h-25zM142 495v90h25v-90h-25zM80 76q0 -26 18 -44.5t44 -18.5h165q26 0 44 18.5t18 44.5v269q0 26 -18 44.5t-44 18.5h-165q-26 0 -44 -18.5t-18 -44.5v-269zM394 76q0 -18 -6.5 -33.5t-18.5 -27t-28 -18.5t-34 -7h-165q-18 0 -34 7t-27.5 18.5
t-18.5 27t-7 33.5v269q0 18 7 33.5t18.5 27t27.5 18.5t34 7h165q18 0 34 -7t28 -18.5t18.5 -27t6.5 -33.5v-269z" />
    <glyph glyph-name="divide" unicode="&#xf7;" horiz-adv-x="458" 
d="M208 78h43v-43h-43v43zM208 443h43v-43h-43v43zM50 227v25h358v-25h-358z" />
    <glyph glyph-name="oslash" unicode="&#xf8;" 
d="M94 4q-18 11 -28.5 30t-10.5 42v269q0 18 7 33.5t18.5 27t27.5 18.5t34 7h165q7 0 13.5 -1t13.5 -3l29 51l20 -11l-29 -50q18 -12 29 -30.5t11 -41.5v-269q0 -18 -6.5 -33.5t-18.5 -27t-28 -18.5t-34 -7h-165q-14 0 -27 5l-29 -52l-20 11zM369 345q0 16 -7.5 29t-19.5 22
l-216 -381q5 -2 16 -2h165q26 0 44 18.5t18 44.5v269zM80 76q0 -33 26 -51l216 381q-10 2 -15 2h-165q-26 0 -44 -18.5t-18 -44.5v-269z" />
    <glyph glyph-name="ugrave" unicode="&#xf9;" horiz-adv-x="441" 
d="M135 605h31l65 -145h-21zM274 13q37 0 62 25t25 62v321h25v-421h-21l-4 47q-10 -25 -33 -41t-52 -16h-134q-18 0 -34 7t-28 18.5t-18.5 27t-6.5 33.5v345h25v-345q0 -26 18 -44.5t44 -18.5h132z" />
    <glyph glyph-name="uacute" unicode="&#xfa;" horiz-adv-x="441" 
d="M230 460h-21l65 145h31zM274 13q37 0 62 25t25 62v321h25v-421h-21l-4 47q-10 -25 -33 -41t-52 -16h-134q-18 0 -34 7t-28 18.5t-18.5 27t-6.5 33.5v345h25v-345q0 -26 18 -44.5t44 -18.5h132z" />
    <glyph glyph-name="ucircumflex" unicode="&#xfb;" horiz-adv-x="441" 
d="M300 460h-19l-61 114l-61 -114h-19l69 145h22zM274 13q37 0 62 25t25 62v321h25v-421h-21l-4 47q-10 -25 -33 -41t-52 -16h-134q-18 0 -34 7t-28 18.5t-18.5 27t-6.5 33.5v345h25v-345q0 -26 18 -44.5t44 -18.5h132z" />
    <glyph glyph-name="udieresis" unicode="&#xfc;" horiz-adv-x="441" 
d="M276 495v90h25v-90h-25zM138 495v90h25v-90h-25zM274 13q37 0 62 25t25 62v321h25v-421h-21l-4 47q-10 -25 -33 -41t-52 -16h-134q-18 0 -34 7t-28 18.5t-18.5 27t-6.5 33.5v345h25v-345q0 -26 18 -44.5t44 -18.5h132z" />
    <glyph glyph-name="yacute" unicode="&#xfd;" horiz-adv-x="443" 
d="M231 460h-21l65 145h31zM388 421v-562q0 -18 -6.5 -33.5t-18.5 -27t-28 -18.5t-34 -7h-157q-18 0 -34 7t-27.5 18.5t-18.5 27t-7 33.5v24h25v-24q0 -26 18 -44.5t44 -18.5h157q26 0 44 18.5t18 44.5v188q-10 -25 -33 -41t-52 -16h-136q-18 0 -34 7t-28 18.5t-18.5 27
t-6.5 33.5v345h25v-345q0 -26 18 -44.5t44 -18.5h134q37 0 62 25t25 62v321h25z" />
    <glyph glyph-name="thorn" unicode="&#xfe;" 
d="M165 -10q-29 0 -52 16t-33 41v-264h-25v855h25v-264q10 25 33 41t52 16h142q18 0 34 -7t28 -18.5t18.5 -27t6.5 -33.5v-269q0 -18 -6.5 -33.5t-18.5 -27t-28 -18.5t-34 -7h-142zM167 408q-37 0 -62 -25t-25 -62v-221q0 -37 25 -62t62 -25h140q26 0 44 18.5t18 44.5v269
q0 26 -18 44.5t-44 18.5h-140z" />
    <glyph glyph-name="ydieresis" unicode="&#xff;" horiz-adv-x="443" 
d="M278 495v90h25v-90h-25zM140 495v90h25v-90h-25zM388 421v-562q0 -18 -6.5 -33.5t-18.5 -27t-28 -18.5t-34 -7h-157q-18 0 -34 7t-27.5 18.5t-18.5 27t-7 33.5v24h25v-24q0 -26 18 -44.5t44 -18.5h157q26 0 44 18.5t18 44.5v188q-10 -25 -33 -41t-52 -16h-136
q-18 0 -34 7t-28 18.5t-18.5 27t-6.5 33.5v345h25v-345q0 -26 18 -44.5t44 -18.5h134q37 0 62 25t25 62v321h25z" />
    <glyph glyph-name="dotlessi" unicode="&#x131;" horiz-adv-x="155" 
d="M65 421h25v-421h-25v421z" />
    <glyph glyph-name="Lslash" unicode="&#x141;" horiz-adv-x="418" 
d="M70 0v283l-50 -10v26l50 9v260h27v-254l50 9v-25l-50 -10v-263h311v-25h-338z" />
    <glyph glyph-name="lslash" unicode="&#x142;" horiz-adv-x="135" 
d="M7 273v25l48 9v331h25v-326l48 9v-24l-48 -9v-288h-25v283z" />
    <glyph glyph-name="OE" unicode="&#x152;" horiz-adv-x="858" 
d="M811 568v-26h-304v-243h237v-25h-237v-248h366v-26h-393v148q-23 -80 -77 -121t-134 -41q-110 0 -169.5 79.5t-59.5 218.5t59.5 218.5t169.5 79.5q80 0 134 -41t77 -121v127l-16 21h347zM274 11q99 0 152.5 73.5t53.5 199.5t-53.5 199.5t-152.5 73.5t-152.5 -73.5
t-53.5 -199.5t53.5 -199.5t152.5 -73.5z" />
    <glyph glyph-name="oe" unicode="&#x153;" horiz-adv-x="739" 
d="M389 72q2 -24 19.5 -41.5t42.5 -17.5h151q26 0 45 18.5t19 44.5v24h23v-24q0 -18 -6.5 -33.5t-18.5 -27t-28 -18.5t-34 -7h-151q-24 0 -44 12.5t-31 31.5q-11 -19 -30.5 -31.5t-43.5 -12.5h-165q-18 0 -34 7t-27.5 18.5t-18.5 27t-7 33.5v269q0 18 7 33.5t18.5 27
t27.5 18.5t34 7h165q24 0 43.5 -12.5t30.5 -31.5q11 19 31 31.5t44 12.5h151q18 0 34 -7t28 -18.5t18.5 -27t6.5 -33.5v-102l-300 -55v-116zM296 13q27 0 47.5 19.5t20.5 43.5v269q0 26 -18 44.5t-44 18.5h-165q-26 0 -44 -18.5t-18 -44.5v-269q0 -26 18 -44.5t44 -18.5h159
zM389 209l277 51v85q0 26 -19 44.5t-45 18.5h-151q-26 0 -44 -18.5t-18 -44.5v-136z" />
    <glyph glyph-name="Scaron" unicode="&#x160;" horiz-adv-x="490" 
d="M256 621h-22l-69 145h19l61 -114l61 114h19zM100 369q-20 14 -32.5 34.5t-12.5 48.5v25q0 21 8 39t22 32t32.5 22t39.5 8h176q21 0 40 -8t32.5 -22t21.5 -32t8 -39v-25h-25v25q0 31 -23 53.5t-55 22.5h-174q-32 0 -54 -22.5t-22 -53.5v-25q0 -19 9 -35.5t24 -26.5
l276 -191q19 -14 31.5 -34.5t12.5 -48.5v-25q0 -21 -8 -39t-22 -32t-32.5 -22t-39.5 -8h-176q-21 0 -40 8t-32.5 22t-21.5 32t-8 39v25h25v-25q0 -31 23 -53.5t55 -22.5h174q32 0 54 22.5t22 53.5v25q0 20 -9 36t-24 27z" />
    <glyph glyph-name="scaron" unicode="&#x161;" horiz-adv-x="404" 
d="M213 461h-22l-69 145h19l61 -114l61 114h19zM45 345q0 18 7 33.5t18.5 27t27.5 18.5t34 7h140q18 0 34 -7t28 -18.5t18.5 -27t6.5 -33.5v-24h-23v24q0 26 -19 44t-45 18h-140q-26 0 -44 -18t-18 -44v-24q0 -15 9 -27t23 -19l207 -105q21 -11 35.5 -28.5t14.5 -41.5v-24
q0 -18 -6.5 -33.5t-18.5 -27t-28 -18.5t-34 -7h-140q-18 0 -34 7t-27.5 18.5t-18.5 27t-7 33.5v24h23v-24q0 -26 19 -44t45 -18h140q26 0 44 18t18 44v24q0 16 -9 27.5t-23 18.5l-207 105q-20 11 -35 28.5t-15 41.5v24z" />
    <glyph glyph-name="Ydieresis" unicode="&#x178;" horiz-adv-x="423" 
d="M285 654v90h25v-90h-25zM147 654v90h25v-90h-25zM90 0l124 208l-214 360h29l200 -335l200 335h29l-339 -568h-29z" />
    <glyph glyph-name="Zcaron" unicode="&#x17d;" horiz-adv-x="419" 
d="M221 621h-22l-69 145h19l61 -114l61 114h19zM15 0l337 541h-332v27h379l-336 -541h336v-27h-384z" />
    <glyph glyph-name="zcaron" unicode="&#x17e;" horiz-adv-x="353" 
d="M188 461h-22l-69 145h19l61 -114l61 114h19zM282 395h-257v26h305l-264 -395h262v-26h-309z" />
    <glyph glyph-name="florin" unicode="&#x192;" horiz-adv-x="329" 
d="M4 -148q-9 -34 -36.5 -56.5t-64.5 -22.5h-89v23h86q29 0 50.5 15.5t28.5 40.5l146 546h-68v23h74l36 138q9 34 36.5 56.5t64.5 22.5h89v-23h-86q-29 0 -50.5 -15.5t-28.5 -40.5l-36 -138h134v-23h-140z" />
    <glyph glyph-name="circumflex" unicode="&#x2c6;" horiz-adv-x="350" 
d="M255 443h-19l-61 114l-61 -114h-19l69 145h22z" />
    <glyph glyph-name="caron" unicode="&#x2c7;" horiz-adv-x="350" 
d="M186 443h-22l-69 145h19l61 -114l61 114h19z" />
    <glyph glyph-name="breve" unicode="&#x2d8;" horiz-adv-x="350" 
d="M292 576q0 -30 -10.5 -53.5t-27 -39.5t-37.5 -24t-42 -8q-23 0 -44 9t-37 25t-26 39t-10 52h23q0 -23 8 -41.5t21 -31.5t30 -20t35 -7q35 0 64 25.5t30 74.5h23z" />
    <glyph glyph-name="dotaccent" unicode="&#x2d9;" horiz-adv-x="350" 
d="M161 477v90h27v-90h-27z" />
    <glyph glyph-name="ring" unicode="&#x2da;" horiz-adv-x="350" 
d="M254 521q0 -33 -23 -56t-56 -23q-32 0 -55.5 23t-23.5 56q0 32 23 55t55 23q33 0 56.5 -23t23.5 -55zM232 521q0 23 -16.5 39.5t-40.5 16.5q-23 0 -40 -16.5t-17 -39.5q0 -24 16.5 -40.5t39.5 -16.5q24 0 40.5 16.5t16.5 40.5h1z" />
    <glyph glyph-name="ogonek" unicode="&#x2db;" horiz-adv-x="350" 
d="M127 13h31l65 -145h-21z" />
    <glyph glyph-name="tilde" unicode="&#x2dc;" horiz-adv-x="350" 
d="M299 529q-4 -27 -20.5 -45t-42.5 -18q-17 0 -32.5 6.5t-30.5 14t-29.5 14t-29.5 6.5q-16 0 -29 -10.5t-17 -31.5h-17q4 27 20.5 45t42.5 18q17 0 32.5 -6.5t30.5 -14t29.5 -14t29.5 -6.5q16 0 29 10.5t17 31.5h17z" />
    <glyph glyph-name="hungarumlaut" unicode="&#x2dd;" horiz-adv-x="350" 
d="M100 443h-21l65 145h31zM195 443h-21l65 145h31z" />
    <glyph glyph-name="uni0394" unicode="&#x394;" horiz-adv-x="500" 
d="M250 589l240 -589h-480zM47 25h406l-203 503z" />
    <glyph glyph-name="uni0394" unicode="&#x2206;" horiz-adv-x="500" 
d="M250 589l240 -589h-480zM47 25h406l-203 503z" />
    <glyph glyph-name="endash" unicode="&#x2013;" horiz-adv-x="380" 
d="M380 193h-380v25h380v-25z" />
    <glyph glyph-name="emdash" unicode="&#x2014;" horiz-adv-x="760" 
d="M760 193h-760v25h760v-25z" />
    <glyph glyph-name="quoteleft" unicode="&#x2018;" horiz-adv-x="203" 
d="M134 368h-9l-45 166v34h43v-43h-17z" />
    <glyph glyph-name="quoteright" unicode="&#x2019;" horiz-adv-x="203" 
d="M97 525h-17v43h43v-34l-45 -166h-9z" />
    <glyph glyph-name="quotesinglbase" unicode="&#x201a;" horiz-adv-x="203" 
d="M97 0h-17v43h43v-34l-45 -166h-9z" />
    <glyph glyph-name="quotedblleft" unicode="&#x201c;" horiz-adv-x="326" 
d="M257 368h-9l-45 166v34h43v-43h-17zM134 368h-9l-45 166v34h43v-43h-17z" />
    <glyph glyph-name="quotedblright" unicode="&#x201d;" horiz-adv-x="326" 
d="M97 525h-17v43h43v-34l-45 -166h-9zM220 525h-17v43h43v-34l-45 -166h-9z" />
    <glyph glyph-name="quotedblbase" unicode="&#x201e;" horiz-adv-x="326" 
d="M97 0h-17v43h43v-34l-45 -166h-9zM220 0h-17v43h43v-34l-45 -166h-9z" />
    <glyph glyph-name="dagger" unicode="&#x2020;" horiz-adv-x="395" 
d="M210 -210h-24v559h-136v22h136v197h24v-197h135v-22h-135v-559z" />
    <glyph glyph-name="daggerdbl" unicode="&#x2021;" horiz-adv-x="395" 
d="M345 -13h-135v-197h-24v197h-136v22h136v340h-136v22h136v197h24v-197h135v-22h-135v-340h135v-22z" />
    <glyph glyph-name="bullet" unicode="&#x2022;" horiz-adv-x="294" 
d="M244 287q0 -41 -28 -69t-69 -28t-69 28t-28 69t28 69t69 28t69 -28t28 -69z" />
    <glyph glyph-name="ellipsis" unicode="&#x2026;" horiz-adv-x="609" 
d="M283 43h43v-43h-43v43zM486 43h43v-43h-43v43zM80 43h43v-43h-43v43z" />
    <glyph glyph-name="perthousand" unicode="&#x2030;" horiz-adv-x="671" 
d="M65 438q0 -16 11 -28t26 -12h56q15 0 26 12t11 28v77q0 16 -11 28t-26 12h-56q-15 0 -26 -12t-11 -28v-77zM40 515q0 26 18 44.5t44 18.5h56q26 0 44 -18.5t18 -44.5v-77q0 -26 -18 -44.5t-44 -18.5h-56q-26 0 -44 18.5t-18 44.5v77zM356 568l-241 -568h-25l241 568h25z
M381 130q0 16 -11 28t-26 12h-56q-15 0 -26 -12t-11 -28v-77q0 -16 11 -28t26 -12h56q15 0 26 12t11 28v77zM406 53q0 -26 -18 -44.5t-44 -18.5h-56q-26 0 -44 18.5t-18 44.5v77q0 26 18 44.5t44 18.5h56q26 0 44 -18.5t18 -44.5v-77zM606 130q0 16 -11 28t-26 12h-56
q-15 0 -26 -12t-11 -28v-77q0 -16 11 -28t26 -12h56q15 0 26 12t11 28v77zM631 53q0 -26 -18 -44.5t-44 -18.5h-56q-26 0 -44 18.5t-18 44.5v77q0 26 18 44.5t44 18.5h56q26 0 44 -18.5t18 -44.5v-77z" />
    <glyph glyph-name="guilsinglleft" unicode="&#x2039;" horiz-adv-x="189" 
d="M30 240l90 179h29l-91 -179l91 -180h-29z" />
    <glyph glyph-name="guilsinglright" unicode="&#x203a;" horiz-adv-x="189" 
d="M69 60h-29l91 180l-91 179h29l90 -179z" />
    <glyph glyph-name="fraction" unicode="&#x2044;" horiz-adv-x="198" 
d="M-97 0h-28l416 587h32z" />
    <glyph glyph-name="Euro" unicode="&#x20ac;" horiz-adv-x="537" 
d="M30 254h52v60h-50v25h50v138q0 21 8 39t22 32t32.5 22t39.5 8h196q21 0 40 -8t32.5 -22t21.5 -32t8 -39v-25h-27v25q0 31 -22 53.5t-54 22.5h-194q-32 0 -54 -22.5t-22 -53.5v-138h282l-7 -25h-275v-60h257l-7 -25h-250v-138q0 -31 22 -53.5t54 -22.5h194q32 0 54 22.5
t22 53.5v25h27v-25q0 -21 -8 -39t-21.5 -32t-32.5 -22t-40 -8h-196q-21 0 -39.5 8t-32.5 22t-22 32t-8 39v138h-52v25z" />
    <glyph glyph-name="trademark" unicode="&#x2122;" horiz-adv-x="771" 
d="M161 395v173h25v-173h131v-24h-131v-174h-25v174h-131v24h131zM559 226l182 363v-392h-25v292l-157 -313l-157 313v-292h-25v392z" />
    <glyph glyph-name="minus" unicode="&#x2212;" horiz-adv-x="458" 
d="M50 227v25h358v-25h-358z" />
    <glyph glyph-name="uniFB01" unicode="&#xfb01;" horiz-adv-x="368" 
d="M303 421v-421h-25v398h-168v-398h-25v398h-75v23h75v131q0 18 7 33.5t18.5 27t27.5 18.5t34 7h116v-23h-116q-26 0 -44 -18.5t-18 -44.5v-131h193z" />
    <glyph glyph-name="uniFB02" unicode="&#xfb02;" horiz-adv-x="384" 
d="M85 0v398h-75v23h75v131q0 18 7 33.5t18.5 27t27.5 18.5t34 7h157v-638h-25v615h-132q-26 0 -44 -18.5t-18 -44.5v-131h133v-23h-133v-398h-25z" />
    <glyph glyph-name="glyph13" horiz-adv-x="537" 
d="M30 254h52v60h-50v25h50v138q0 21 8 39t22 32t32.5 22t39.5 8h196q21 0 40 -8t32.5 -22t21.5 -32t8 -39v-25h-27v25q0 31 -22 53.5t-54 22.5h-194q-32 0 -54 -22.5t-22 -53.5v-138h282l-7 -25h-275v-60h257l-7 -25h-250v-138q0 -31 22 -53.5t54 -22.5h194q32 0 54 22.5
t22 53.5v25h27v-25q0 -21 -8 -39t-21.5 -32t-32.5 -22t-40 -8h-196q-21 0 -39.5 8t-32.5 22t-22 32t-8 39v138h-52v25z" />
    </font>
</defs>
</svg>
